# xmcd
#
# Track frame offsets: 
#        150
#        6796
#        16727
#        28502
#        38803
#        46367
#        57367
#        67435
#        79629
#        90836
#        103322
#        115579
#        127759
#        136590
#        144469
#        156624
#        169760
#
# Disc length: 2396 seconds
#
# Revision: 0
# Processed by: cddbd v1.5.2PL0 Copyright (c) Steve Scherf et al.
# Submitted via: ExactAudioCopy v0.99pb5
#
DISCID=d6095a11
DTITLE=Various Artist - Jim Reeves and Dolly Parton
DYEAR=2006
DGENRE=Country
TTITLE0=Jim Reeves - Have I Told You Lately That I Love You
TTITLE1=Dolly Parton - Girl Left Alone
TTITLE2=Jim Reeves - Mexican Joe
TTITLE3=Dolly Parton - Release Me
TTITLE4=Jim Reeves - Bimbo
TTITLE5=Dolly Parton - Honkey Tonk Angels
TTITLE6=Jim Reeves - He Will Have To Go
TTITLE7=Dolly Parton - Letter To Heaven
TTITLE8=Jim Reeves - Just Call Me Lonesome
TTITLE9=Dolly Parton - Two Little Orphans
TTITLE10=Jim Reeves - Your Old Love Letters
TTITLE11=Dolly Parton - Making Believe
TTITLE12=Jim Reeves - According To My Heart
TTITLE13=Dolly Parton - Puppy Love
TTITLE14=Jim Reeves - Four Walls
TTITLE15=Dolly Parton - Little Blossom
TTITLE16=Jim Reeves - Dear Hearts and Gentle People
EXTD=
EXTT0=
EXTT1=
EXTT2=
EXTT3=
EXTT4=
EXTT5=
EXTT6=
EXTT7=
EXTT8=
EXTT9=
EXTT10=
EXTT11=
EXTT12=
EXTT13=
EXTT14=
EXTT15=
EXTT16=
PLAYORDER=
